<svg xmlns="http://www.w3.org/2000/svg" width="647" height="843" viewBox="0 0 647 843">
  <defs>
    <style>
      .cls-1 {
        fill: #fff;
        fill-rule: evenodd;
      }
    </style>
  </defs>
  <path id="Preenchimento_de_Cor_3" data-name="Preenchimento de Cor 3" class="cls-1" d="M358,27c0.644,1.285-16.524,47.21-19,60-8.362,43.191,11.172,79.59,28,101,5.77,7.341,24.015,29.285,41,17,20.734-8.552,13.586-44.131,9-65h1c18.452,17.679,39.036,31.742,50,57,7.186,16.555,11.4,74.4,23,87,2.287,2.484,5.868,2.018,8,5,6.372,0.332,14.576.654,18-2,12.692-6.386,6.382-22.57,9-36,2.212,2.063,1.882,1.382,3,5,14.594,11.415,41.651,76.273,45,96-2.743,4.579,13.1,22.18,9,29,5.086,11.036,24.933,78.643,19,92,10.945,34.506,4.63,90.972-5,119-4.506,13.116-4.637,26.072-10,39-27.826,67.081-75.387,119.289-143,151-36.12,16.94-111.811,42.575-171,25-35.571-10.562-70.7-21.273-101-39C97.217,724.252,12.624,602.2,44,467l18-73c18.382-52.468,42.7-95.035,70-138l37-46h2v3c-7.554,13.587-15.837,45.865-7,60l14,2c18.985-12.3,44.75-105.661,58-132,20.408-40.569,49.655-73.182,85-99ZM303,395l-37,11c-32.589,14.656-59.641,45.147-71,81-29.613,93.47,56.428,198.185,158,170,64.464-17.888,130.415-96.414,91-183C420.875,423.2,378.625,394.274,303,395Z"/>
</svg>
