<svg xmlns="http://www.w3.org/2000/svg" width="647" height="843" viewBox="0 0 647 843">
  <defs>
    <style>
      .cls-1 {
        fill: #fff;
        fill-rule: evenodd;
      }
    </style>
  </defs>
  <path id="Preenchimento_de_Cor_2" data-name="Preenchimento de Cor 2" class="cls-1" d="M546,249c2.021,180.3-18.273,295.127-110,369-18.234,14.685-81.172,64.579-114,61-48.688-5.308-106.475-50.2-132-81-74.21-89.54-90.913-170.572-90-349,67.555,1.107,126.26-17.915,169-44,18.264-11.147,41.934-37.215,56-41,3.673,11.157,29.134,23.875,41,31C414.052,223.851,468.691,249.374,546,249ZM387,322L284,457l-29-27-41,41v2l74,73h2q72.494-93.99,145-188C429.933,350.74,396.038,323.942,387,322Z"/>
</svg>
