<svg xmlns="http://www.w3.org/2000/svg" width="647" height="843" viewBox="0 0 647 843">
  <defs>
    <style>
      .cls-1 {
        fill: #fff;
        fill-rule: evenodd;
      }
    </style>
  </defs>
  <path id="Preenchimento_de_Cor_1" data-name="Preenchimento de Cor 1" class="cls-1" d="M493,248H420c0.4-26.312,1.746-55.048-6-74-25.469-62.319-103.984-85.978-163-39-39.21,31.212-33.657,101.729-33,173H447c59.184-.006,105.16-3.011,131,30,21.06,26.9,17,78.871,17,130V666c0,29.98,4.712,70.512-4,94-7.07,19.061-24.323,35.55-39,44-29.425,16.939-98.09,8-141,8H193c-30.252,0-74.618,5.815-98-4-23.555-9.887-45.479-32.006-51-58L43,646V456c-0.009-114.983-.657-85.017,18-120,15.124-22.389,45.187-28.38,84-28-1.5-136.26,4.172-196.368,82-246C355.382-19.872,469.02,83.318,489,171,493.857,192.317,493.26,220.2,493,248ZM257,485c-22.354,35.092.856,93.117,35,99-0.876,34.131-8.769,97.4,32,87,28.786-7.343,22.825-50.987,22-87,28.594-6.132,58.7-53.7,39-90C345.045,420.381,272.7,460.348,257,485Z"/>
</svg>
